<?xml version="1.0" encoding="UTF-8" standalone="no"?><svg xmlns="http://www.w3.org/2000/svg" xmlns:xlink="http://www.w3.org/1999/xlink" contentScriptType="application/ecmascript" contentStyleType="text/css" height="330px" preserveAspectRatio="none" style="width:473px;height:330px;background:#FFFFFF;" version="1.1" viewBox="0 0 473 330" width="473px" zoomAndPan="magnify"><defs><filter height="300%" id="f1ap1ik9b7yinx" width="300%" x="-1" y="-1"><feGaussianBlur result="blurOut" stdDeviation="2.0"/><feColorMatrix in="blurOut" result="blurOut2" type="matrix" values="0 0 0 0 0 0 0 0 0 0 0 0 0 0 0 0 0 0 .4 0"/><feOffset dx="4.0" dy="4.0" in="blurOut2" result="blurOut3"/><feBlend in="SourceGraphic" in2="blurOut3" mode="normal"/></filter></defs><g><rect fill="#FEFECE" filter="url(#f1ap1ik9b7yinx)" height="49.25" style="stroke:#A80036;stroke-width:1.5;" width="206" x="163.19" y="7"/><text fill="#000000" font-family="sans-serif" font-size="12" lengthAdjust="spacing" textLength="48" x="242.19" y="20.1387">lSystem</text><line style="stroke:#A80036;stroke-width:1.0;" x1="163.19" x2="369.19" y1="24.9688" y2="24.9688"/><text fill="#000000" font-family="sans-serif" font-size="10" lengthAdjust="spacing" textLength="30" x="181.19" y="36.251">axiom</text><text fill="#000000" font-family="sans-serif" font-size="10" lengthAdjust="spacing" textLength="56" x="234.19" y="36.251">[prodAppA]</text><line style="stroke:#A80036;stroke-width:1.0;" x1="229.19" x2="229.19" y1="24.9688" y2="40.6094"/><line style="stroke:#A80036;stroke-width:1.0;" x1="163.19" x2="369.19" y1="40.6094" y2="40.6094"/><text fill="#000000" font-family="sans-serif" font-size="10" lengthAdjust="spacing" textLength="56" x="168.19" y="51.8916">productions</text><text fill="#000000" font-family="sans-serif" font-size="10" lengthAdjust="spacing" textLength="130" x="234.19" y="51.8916">[productionA, productionB]</text><line style="stroke:#A80036;stroke-width:1.0;" x1="229.19" x2="229.19" y1="40.6094" y2="56.25"/><rect fill="#FEFECE" filter="url(#f1ap1ik9b7yinx)" height="80.5313" style="stroke:#A80036;stroke-width:1.5;" width="133" x="326.69" y="122"/><text fill="#000000" font-family="sans-serif" font-size="12" lengthAdjust="spacing" textLength="76" x="355.19" y="135.1387">productionA</text><line style="stroke:#A80036;stroke-width:1.0;" x1="326.69" x2="459.69" y1="139.9688" y2="139.9688"/><text fill="#000000" font-family="sans-serif" font-size="10" lengthAdjust="spacing" textLength="13" x="353.69" y="151.251">lhs</text><text fill="#000000" font-family="sans-serif" font-size="10" lengthAdjust="spacing" textLength="17" x="398.69" y="151.251">"A"</text><line style="stroke:#A80036;stroke-width:1.0;" x1="393.69" x2="393.69" y1="139.9688" y2="155.6094"/><line style="stroke:#A80036;stroke-width:1.0;" x1="326.69" x2="459.69" y1="155.6094" y2="155.6094"/><text fill="#000000" font-family="sans-serif" font-size="10" lengthAdjust="spacing" textLength="57" x="331.69" y="166.8916">parameters</text><text fill="#000000" font-family="sans-serif" font-size="10" lengthAdjust="spacing" textLength="8" x="398.69" y="166.8916">[]</text><line style="stroke:#A80036;stroke-width:1.0;" x1="393.69" x2="393.69" y1="155.6094" y2="171.25"/><line style="stroke:#A80036;stroke-width:1.0;" x1="326.69" x2="459.69" y1="171.25" y2="171.25"/><text fill="#000000" font-family="sans-serif" font-size="10" lengthAdjust="spacing" textLength="45" x="337.69" y="182.5322">predicate</text><text fill="#000000" font-family="sans-serif" font-size="10" lengthAdjust="spacing" textLength="56" x="398.69" y="182.5322">makeTrue()</text><line style="stroke:#A80036;stroke-width:1.0;" x1="393.69" x2="393.69" y1="171.25" y2="186.8906"/><line style="stroke:#A80036;stroke-width:1.0;" x1="326.69" x2="459.69" y1="186.8906" y2="186.8906"/><text fill="#000000" font-family="sans-serif" font-size="10" lengthAdjust="spacing" textLength="15" x="352.69" y="198.1729">rhs</text><text fill="#000000" font-family="sans-serif" font-size="10" lengthAdjust="spacing" textLength="56" x="398.69" y="198.1729">[prodAppB]</text><line style="stroke:#A80036;stroke-width:1.0;" x1="393.69" x2="393.69" y1="186.8906" y2="202.5313"/><rect fill="#FEFECE" filter="url(#f1ap1ik9b7yinx)" height="80.5313" style="stroke:#A80036;stroke-width:1.5;" width="187" x="17.69" y="122"/><text fill="#000000" font-family="sans-serif" font-size="12" lengthAdjust="spacing" textLength="76" x="73.19" y="135.1387">productionB</text><line style="stroke:#A80036;stroke-width:1.0;" x1="17.69" x2="204.69" y1="139.9688" y2="139.9688"/><text fill="#000000" font-family="sans-serif" font-size="10" lengthAdjust="spacing" textLength="13" x="44.69" y="151.251">lhs</text><text fill="#000000" font-family="sans-serif" font-size="10" lengthAdjust="spacing" textLength="17" x="89.69" y="151.251">"B"</text><line style="stroke:#A80036;stroke-width:1.0;" x1="84.69" x2="84.69" y1="139.9688" y2="155.6094"/><line style="stroke:#A80036;stroke-width:1.0;" x1="17.69" x2="204.69" y1="155.6094" y2="155.6094"/><text fill="#000000" font-family="sans-serif" font-size="10" lengthAdjust="spacing" textLength="57" x="22.69" y="166.8916">parameters</text><text fill="#000000" font-family="sans-serif" font-size="10" lengthAdjust="spacing" textLength="8" x="89.69" y="166.8916">[]</text><line style="stroke:#A80036;stroke-width:1.0;" x1="84.69" x2="84.69" y1="155.6094" y2="171.25"/><line style="stroke:#A80036;stroke-width:1.0;" x1="17.69" x2="204.69" y1="171.25" y2="171.25"/><text fill="#000000" font-family="sans-serif" font-size="10" lengthAdjust="spacing" textLength="45" x="28.69" y="182.5322">predicate</text><text fill="#000000" font-family="sans-serif" font-size="10" lengthAdjust="spacing" textLength="56" x="89.69" y="182.5322">makeTrue()</text><line style="stroke:#A80036;stroke-width:1.0;" x1="84.69" x2="84.69" y1="171.25" y2="186.8906"/><line style="stroke:#A80036;stroke-width:1.0;" x1="17.69" x2="204.69" y1="186.8906" y2="186.8906"/><text fill="#000000" font-family="sans-serif" font-size="10" lengthAdjust="spacing" textLength="15" x="43.69" y="198.1729">rhs</text><text fill="#000000" font-family="sans-serif" font-size="10" lengthAdjust="spacing" textLength="110" x="89.69" y="198.1729">[prodAppA, prodAppB]</text><line style="stroke:#A80036;stroke-width:1.0;" x1="84.69" x2="84.69" y1="186.8906" y2="202.5313"/><rect fill="#FEFECE" filter="url(#f1ap1ik9b7yinx)" height="49.25" style="stroke:#A80036;stroke-width:1.5;" width="131" x="227.69" y="267"/><text fill="#000000" font-family="sans-serif" font-size="12" lengthAdjust="spacing" textLength="61" x="262.69" y="280.1387">prodAppA</text><line style="stroke:#A80036;stroke-width:1.0;" x1="227.69" x2="358.69" y1="284.9688" y2="284.9688"/><text fill="#000000" font-family="sans-serif" font-size="10" lengthAdjust="spacing" textLength="51" x="233.69" y="296.251">production</text><text fill="#000000" font-family="sans-serif" font-size="10" lengthAdjust="spacing" textLength="58" x="295.69" y="296.251">productionA</text><line style="stroke:#A80036;stroke-width:1.0;" x1="290.69" x2="290.69" y1="284.9688" y2="300.6094"/><line style="stroke:#A80036;stroke-width:1.0;" x1="227.69" x2="358.69" y1="300.6094" y2="300.6094"/><text fill="#000000" font-family="sans-serif" font-size="10" lengthAdjust="spacing" textLength="53" x="232.69" y="311.8916">arguments</text><text fill="#000000" font-family="sans-serif" font-size="10" lengthAdjust="spacing" textLength="8" x="295.69" y="311.8916">[]</text><line style="stroke:#A80036;stroke-width:1.0;" x1="290.69" x2="290.69" y1="300.6094" y2="316.25"/><rect fill="#FEFECE" filter="url(#f1ap1ik9b7yinx)" height="49.25" style="stroke:#A80036;stroke-width:1.5;" width="131" x="45.69" y="267"/><text fill="#000000" font-family="sans-serif" font-size="12" lengthAdjust="spacing" textLength="61" x="80.69" y="280.1387">prodAppB</text><line style="stroke:#A80036;stroke-width:1.0;" x1="45.69" x2="176.69" y1="284.9688" y2="284.9688"/><text fill="#000000" font-family="sans-serif" font-size="10" lengthAdjust="spacing" textLength="51" x="51.69" y="296.251">production</text><text fill="#000000" font-family="sans-serif" font-size="10" lengthAdjust="spacing" textLength="58" x="113.69" y="296.251">productionB</text><line style="stroke:#A80036;stroke-width:1.0;" x1="108.69" x2="108.69" y1="284.9688" y2="300.6094"/><line style="stroke:#A80036;stroke-width:1.0;" x1="45.69" x2="176.69" y1="300.6094" y2="300.6094"/><text fill="#000000" font-family="sans-serif" font-size="10" lengthAdjust="spacing" textLength="53" x="50.69" y="311.8916">arguments</text><text fill="#000000" font-family="sans-serif" font-size="10" lengthAdjust="spacing" textLength="8" x="113.69" y="311.8916">[]</text><line style="stroke:#A80036;stroke-width:1.0;" x1="108.69" x2="108.69" y1="300.6094" y2="316.25"/><!--MD5=[b9573ec77823e74311a983d97a5b3596]
link lSystem to prodAppA--><path codeLine="30" d="M370.19,32.5 C381.53,32.5 374.06,47.76 369.19,58 C351.89,94.41 318.62,81.66 301.19,118 C279.69,162.83 282.81,222.04 287.6,257.87 " fill="none" id="lSystem-to-prodAppA" style="stroke:#A80036;stroke-width:1.0;"/><polygon fill="#A80036" points="288.31,262.98,291.0391,253.5168,287.6249,258.0272,283.1145,254.613,288.31,262.98" style="stroke:#A80036;stroke-width:1.0;"/><!--MD5=[2c2385dc3b6c4c8666a26846567105ea]
link lSystem to productionA--><path codeLine="31" d="M370.19,47.5 C398.34,47.5 402.36,81.86 400.35,112.52 " fill="none" id="lSystem-to-productionA" style="stroke:#A80036;stroke-width:1.0;"/><polygon fill="#A80036" points="399.94,117.8,404.5976,109.122,400.3115,112.8138,396.6197,108.5277,399.94,117.8" style="stroke:#A80036;stroke-width:1.0;"/><!--MD5=[0a861a054777b19baa55c6897ef42e16]
link lSystem to productionB--><path codeLine="32" d="M162.19,47.5 C131.89,47.5 119.51,81.86 114.5,112.52 " fill="none" id="lSystem-to-productionB" style="stroke:#A80036;stroke-width:1.0;"/><polygon fill="#A80036" points="113.7,117.8,118.9932,109.4944,114.4431,112.8555,111.082,108.3055,113.7,117.8" style="stroke:#A80036;stroke-width:1.0;"/><!--MD5=[893cdd850101377ef42858714b03a9a7]
link productionA to prodAppB--><path codeLine="33" d="M326.19,192.5 C259.68,192.5 191.02,231.55 149.71,260.09 " fill="none" id="productionA-to-prodAppB" style="stroke:#A80036;stroke-width:1.0;"/><polygon fill="#A80036" points="145.55,262.99,155.2209,261.1261,149.6522,260.1313,150.647,254.5626,145.55,262.99" style="stroke:#A80036;stroke-width:1.0;"/><!--MD5=[decc7f4abe4b6ca0be7f886b4ccf3c64]
link productionB to prodAppA--><path codeLine="34" d="M206.19,192.5 C242.12,192.5 266.95,229.83 280.63,258.17 " fill="none" id="productionB-to-prodAppA" style="stroke:#A80036;stroke-width:1.0;"/><polygon fill="#A80036" points="282.89,262.99,282.6816,253.1433,280.7631,258.4649,275.4415,256.5464,282.89,262.99" style="stroke:#A80036;stroke-width:1.0;"/><!--MD5=[4c8b608c870c3379a7221bb30a6519de]
link productionB to prodAppB--><path codeLine="35" d="M112.19,200.5 C112.19,219.41 111.96,240.57 111.72,257.51 " fill="none" id="productionB-to-prodAppB" style="stroke:#A80036;stroke-width:1.0;"/><polygon fill="#A80036" points="111.65,262.63,115.7782,253.6881,111.7214,257.6305,107.779,253.5738,111.65,262.63" style="stroke:#A80036;stroke-width:1.0;"/><!--MD5=[e4c2e661ad2c253c3308fae94b70e755]
reverse link productionB to prodAppB--><path codeLine="38" d="M69.36,207.4 C37.78,245.16 6,292.5 45.19,292.5 " fill="none" id="productionB-backto-prodAppB" style="stroke:#A80036;stroke-width:1.0;"/><polygon fill="#A80036" points="72.81,203.31,63.9423,207.5952,69.5796,207.1264,70.0485,212.7638,72.81,203.31" style="stroke:#A80036;stroke-width:1.0;"/><!--MD5=[a1792dcfd33e83d9ae566de52a5de6ad]
reverse link productionA to prodAppA--><path codeLine="37" d="M398.9,208.32 C400.83,245.92 395.99,292.5 360.19,292.5 " fill="none" id="productionA-backto-prodAppA" style="stroke:#A80036;stroke-width:1.0;"/><polygon fill="#A80036" points="398.6,203.31,395.1215,212.5241,398.8861,208.3018,403.1084,212.0664,398.6,203.31" style="stroke:#A80036;stroke-width:1.0;"/><!--MD5=[facbc2f2cc76572ae791ecb8698c1429]
@startuml
map lSystem {
    axiom => [prodAppA]
    productions =>  [productionA, productionB]
}

map productionA {
    lhs => "A"
    parameters => []
    predicate => makeTrue()
    rhs => [prodAppB]
}

map productionB {
    lhs => "B"
    parameters => []
    predicate => makeTrue()
    rhs => [prodAppA, prodAppB]
}

map prodAppA {
    production => productionA
    arguments => []
}

map prodAppB {
    production => productionB
    arguments => []
}

lSystem::axiom -d-> prodAppA
lSystem::productions -d-> productionA
lSystem::productions -d-> productionB
productionA::rhs -d-> prodAppB
productionB::rhs -d-> prodAppA
productionB::rhs -> prodAppB

prodAppA::production -u-> productionA
prodAppB::production -u-> productionB

@enduml

PlantUML version 1.2021.7(Sun May 23 14:40:07 CEST 2021)
(GPL source distribution)
Java Runtime: OpenJDK Runtime Environment
JVM: OpenJDK 64-Bit Server VM
Default Encoding: UTF-8
Language: en
Country: US
--></g></svg>